<?xml version="1.0" encoding="UTF-8" standalone="no"?>
<svg xmlns:xlink="http://www.w3.org/1999/xlink" height="44.0px" width="160.0px" xmlns="http://www.w3.org/2000/svg">
  <g transform="matrix(1.0, 0.0, 0.0, 1.0, 0.0, 0.0)">
    <path d="M152.15 36.15 Q158.0 30.3 158.0 22.0 158.0 13.7 152.15 7.85 146.3 2.0 138.0 2.0 L22.0 2.0 Q13.7 2.0 7.85 7.85 2.0 13.7 2.0 22.0 2.0 30.3 7.85 36.15 13.7 42.0 22.0 42.0 L138.0 42.0 Q146.3 42.0 152.15 36.15 M153.55 37.55 Q147.1 44.0 138.0 44.0 L22.0 44.0 Q12.9 44.0 6.45 37.55 0.0 31.1 0.0 22.0 0.0 12.9 6.45 6.45 12.9 0.0 22.0 0.0 L138.0 0.0 Q147.1 0.0 153.55 6.45 160.0 12.9 160.0 22.0 160.0 31.1 153.55 37.55" fill="#66cc66" fill-rule="evenodd" stroke="none"/>
  </g>
</svg>
