<?xml version="1.0" encoding="UTF-8" standalone="no"?>
<svg xmlns:xlink="http://www.w3.org/1999/xlink" height="30.0px" width="30.0px" xmlns="http://www.w3.org/2000/svg">
  <g transform="matrix(1.0, 0.0, 0.0, 1.0, 0.0, -5.0)">
    <path d="M30.0 20.0 Q30.0 26.2 25.6 30.6 21.2 35.0 15.0 35.0 8.8 35.0 4.4 30.6 0.0 26.2 0.0 20.0 0.0 13.8 4.4 9.4 8.8 5.0 15.0 5.0 21.2 5.0 25.6 9.4 30.0 13.8 30.0 20.0 M28.45 20.0 Q28.45 14.45 24.5 10.5 20.55 6.55 15.0 6.55 9.45 6.55 5.5 10.5 1.55 14.45 1.55 20.0 1.55 25.55 5.5 29.5 9.45 33.45 15.0 33.45 20.55 33.45 24.5 29.5 28.45 25.55 28.45 20.0" fill="#000000" fill-rule="evenodd" stroke="none"/>
    <path d="M28.45 20.0 Q28.45 25.55 24.5 29.5 20.55 33.45 15.0 33.45 9.45 33.45 5.5 29.5 1.55 25.55 1.55 20.0 1.55 14.45 5.5 10.5 9.45 6.55 15.0 6.55 20.55 6.55 24.5 10.5 28.45 14.45 28.45 20.0" fill="#ffffff" fill-rule="evenodd" stroke="none"/>
  </g>
</svg>
