<?xml version="1.0" encoding="UTF-8" standalone="no"?>
<svg xmlns:xlink="http://www.w3.org/1999/xlink" height="216.0px" width="256.0px" xmlns="http://www.w3.org/2000/svg">
  <g transform="matrix(1.0, 0.0, 0.0, 1.0, 0.0, 0.0)">
    <path d="M0.0 216.0 L0.0 185.0 256.0 185.0 256.0 216.0 0.0 216.0" fill="#0065cc" fill-rule="evenodd" stroke="none"/>
    <path d="M0.0 0.0 L1.0 0.0 1.0 126.55 0.95 126.55 0.95 148.55 1.0 148.55 1.0 185.0 0.0 185.0 0.0 0.0" fill="#ff0000"/>
    <path d="M255.0 1.0 L1.0 1.0 1.0 0.0 255.0 0.0 255.0 1.0" fill="#ff0000"/>
    <path d="M255.0 0.0 L256.0 0.0 256.0 126.55 255.95 126.55 255.95 148.55 256.0 148.55 256.0 185.0 255.0 185.0 255.0 0.0" fill="#ff0000"/>
  </g>
</svg>
