<?xml version="1.0" encoding="UTF-8" standalone="no"?>
<svg xmlns:xlink="http://www.w3.org/1999/xlink" height="33.9px" width="33.95px" xmlns="http://www.w3.org/2000/svg">
  <g transform="matrix(1.0, 0.0, 0.0, 1.0, 0.0, 0.0)">
    <path d="M12.45 16.95 Q12.45 18.85 13.8 20.15 15.15 21.5 17.0 21.5 18.9 21.5 20.2 20.15 21.55 18.85 21.55 16.95 21.55 15.1 20.2 13.75 18.9 12.4 17.0 12.4 15.15 12.4 13.8 13.75 12.45 15.1 12.45 16.95 M0.0 16.95 Q0.0 23.95 5.0 28.95 9.95 33.9 17.0 33.9 24.0 33.9 29.0 28.95 33.95 23.95 33.95 16.95 33.95 9.9 29.0 4.95 24.0 0.0 17.0 0.0 9.95 0.0 5.0 4.95 0.0 9.9 0.0 16.95">
      <animate attributeName="d" dur="2s" repeatCount="indefinite" values="M12.45 16.95 Q12.45 18.85 13.8 20.15 15.15 21.5 17.0 21.5 18.9 21.5 20.2 20.15 21.55 18.85 21.55 16.95 21.55 15.1 20.2 13.75 18.9 12.4 17.0 12.4 15.15 12.4 13.8 13.75 12.45 15.1 12.45 16.95 M0.0 16.95 Q0.0 23.95 5.0 28.95 9.95 33.9 17.0 33.9 24.0 33.9 29.0 28.95 33.95 23.95 33.95 16.95 33.95 9.9 29.0 4.95 24.0 0.0 17.0 0.0 9.95 0.0 5.0 4.95 0.0 9.9 0.0 16.95;M12.45 16.95 Q12.45 18.85 13.8 20.15 15.15 21.5 17.0 21.5 18.9 21.5 20.2 20.15 21.55 18.85 21.55 16.95 21.55 15.1 20.2 13.75 18.9 12.4 17.0 12.4 15.15 12.4 13.8 13.75 12.45 15.1 12.45 16.95 M0.0 16.95 Q0.0 23.95 5.0 28.95 9.95 33.9 17.0 33.9 24.0 33.9 29.0 28.95 33.95 23.95 33.95 16.95 33.95 9.9 29.0 4.95 24.0 0.0 17.0 0.0 9.95 0.0 5.0 4.95 0.0 9.9 0.0 16.95"/>
    </path>
    <path d="M0.0 16.95 Q0.0 9.9 5.0 4.95 9.95 0.0 17.0 0.0 24.0 0.0 29.0 4.95 33.95 9.9 33.95 16.95 33.95 23.95 29.0 28.95 24.0 33.9 17.0 33.9 9.95 33.9 5.0 28.95 0.0 23.95 0.0 16.95 M12.45 16.95 Q12.45 15.1 13.8 13.75 15.15 12.4 17.0 12.4 18.9 12.4 20.2 13.75 21.55 15.1 21.55 16.95 21.55 18.85 20.2 20.15 18.9 21.5 17.0 21.5 15.15 21.5 13.8 20.15 12.45 18.85 12.45 16.95" fill="none" stroke="#000000" stroke-linecap="round" stroke-linejoin="round" stroke-opacity="0.0" stroke-width="1.0">
      <animate attributeName="stroke" dur="2s" repeatCount="indefinite" values="#000000;#000001"/>
      <animate attributeName="stroke-width" dur="2s" repeatCount="indefinite" values="0.0;0.0"/>
      <animate attributeName="fill-opacity" dur="2s" repeatCount="indefinite" values="0.0;0.0"/>
      <animate attributeName="d" dur="2s" repeatCount="indefinite" values="M0.0 16.95 Q0.0 9.9 5.0 4.95 9.95 0.0 17.0 0.0 24.0 0.0 29.0 4.95 33.95 9.9 33.95 16.95 33.95 23.95 29.0 28.95 24.0 33.9 17.0 33.9 9.95 33.9 5.0 28.95 0.0 23.95 0.0 16.95 M12.45 16.95 Q12.45 15.1 13.8 13.75 15.15 12.4 17.0 12.4 18.9 12.4 20.2 13.75 21.55 15.1 21.55 16.95 21.55 18.85 20.2 20.15 18.9 21.5 17.0 21.5 15.15 21.5 13.8 20.15 12.45 18.85 12.45 16.95;M0.0 16.95 Q0.0 9.9 5.0 4.95 9.95 0.0 17.0 0.0 24.0 0.0 29.0 4.95 33.95 9.9 33.95 16.95 33.95 23.95 29.0 28.95 24.0 33.9 17.0 33.9 9.95 33.9 5.0 28.95 0.0 23.95 0.0 16.95 M12.45 16.95 Q12.45 15.1 13.8 13.75 15.15 12.4 17.0 12.4 18.9 12.4 20.2 13.75 21.55 15.1 21.55 16.95 21.55 18.85 20.2 20.15 18.9 21.5 17.0 21.5 15.15 21.5 13.8 20.15 12.45 18.85 12.45 16.95"/>
    </path>
  </g>
</svg>
