<?xml version="1.0" encoding="UTF-8" standalone="no"?>
<svg xmlns:xlink="http://www.w3.org/1999/xlink" height="10.0px" width="1280.0px" xmlns="http://www.w3.org/2000/svg">
  <g transform="matrix(1.0, 0.0, 0.0, 1.0, 0.0, 1.0)">
    <path d="M1258.0 -1.0 L1280.0 -1.0 1280.0 9.0 1258.0 9.0 1258.0 -1.0" fill="#ff0000"/>
    <path d="M754.0 -1.0 L880.0 -1.0 880.0 9.0 754.0 9.0 754.0 -1.0" fill="#ff0000"/>
    <path d="M1006.0 -1.0 L1132.0 -1.0 1132.0 9.0 1006.0 9.0 1006.0 -1.0" fill="#ff0000"/>
    <path d="M1132.0 -1.0 L1258.0 -1.0 1258.0 9.0 1132.0 9.0 1132.0 -1.0" fill="#ff0000"/>
    <path d="M880.0 9.0 L880.0 -1.0 1006.0 -1.0 1006.0 9.0 880.0 9.0" fill="#ff0000"/>
    <path d="M124.0 9.0 L124.0 -1.0 250.0 -1.0 250.0 9.0 124.0 9.0" fill="#ff0000"/>
    <path d="M502.0 -1.0 L628.0 -1.0 628.0 9.0 502.0 9.0 502.0 -1.0" fill="#ff0000"/>
    <path d="M376.0 -1.0 L502.0 -1.0 502.0 9.0 376.0 9.0 376.0 -1.0" fill="#ff0000"/>
    <path d="M250.0 -1.0 L376.0 -1.0 376.0 9.0 250.0 9.0 250.0 -1.0" fill="#ff0000"/>
    <path d="M754.0 -1.0 L754.0 9.0 628.0 9.0 628.0 -1.0 754.0 -1.0" fill="#ff0000"/>
    <path d="M124.0 9.0 L0.0 9.0 0.0 -1.0 124.0 -1.0 124.0 9.0" fill="#ff0000"/>
  </g>
</svg>
