<?xml version="1.0" encoding="UTF-8" standalone="no"?>
<svg xmlns:xlink="http://www.w3.org/1999/xlink" height="443.95px" width="865.0px" xmlns="http://www.w3.org/2000/svg">
  <g transform="matrix(1.0, 0.0, 0.0, 1.0, 580.0, 167.0)">
    <path d="M-271.0 -125.05 L285.0 -125.05 285.0 276.95 -271.0 276.95 -271.0 -125.05" fill="#ffcc33" fill-rule="evenodd" stroke="none"/>
    <path d="M284.0 275.95 L-270.0 275.95 -270.0 -124.05 284.0 -124.05 284.0 275.95" fill="#99cdff" fill-rule="evenodd" stroke="none"/>
    <path d="M-580.0 -118.5 L-580.0 -130.5 -284.05 -130.5 -284.05 -118.5 -580.0 -118.5" fill="#ff0000"/>
    <path d="M-580.0 -167.0 L-284.0 -167.0 -284.0 -130.0 -580.0 -130.0 -580.0 -167.0" fill="#f9f9f6" fill-rule="evenodd" stroke="none"/>
    <path d="M-568.0 -129.0 L-292.0 -129.0 -292.0 -127.0 -568.0 -127.0 -568.0 -129.0" fill="#cccccc" fill-rule="evenodd" stroke="none"/>
    <path d="M285.0 -127.0 L-271.0 -127.0 -271.0 -129.0 285.0 -129.0 285.0 -127.0" fill="#cccccc" fill-rule="evenodd" stroke="none"/>
  </g>
</svg>
