<?xml version="1.0" encoding="UTF-8" standalone="no"?>
<svg xmlns:xlink="http://www.w3.org/1999/xlink" height="423.0px" width="880.0px" xmlns="http://www.w3.org/2000/svg">
  <g transform="matrix(1.0, 0.0, 0.0, 1.0, -200.0, -109.95)">
    <path d="M1080.0 532.95 L427.0 532.95 427.0 109.95 1080.0 109.95 1080.0 532.95" fill="#d3d3d3" fill-rule="evenodd" stroke="none"/>
    <path d="M415.0 230.0 L200.0 230.0 200.0 110.0 415.0 110.0 415.0 230.0" fill="#d9d9d9" fill-rule="evenodd" stroke="none"/>
    <path d="M1078.95 229.2 L428.0 229.2 428.0 164.2 1078.95 164.2 1078.95 229.2" fill="#ffffff" fill-rule="evenodd" stroke="none"/>
    <path d="M1078.95 532.0 L428.0 532.0 428.0 331.0 1078.95 331.0 1078.95 532.0" fill="#ffffff" fill-rule="evenodd" stroke="none"/>
    <path d="M414.0 229.0 L201.0 229.0 201.0 111.0 414.0 111.0 414.0 229.0" fill="#ffffff" fill-rule="evenodd" stroke="none"/>
    <path d="M1078.95 111.0 L1078.95 163.0 428.0 163.0 428.0 111.0 1078.95 111.0" fill="#ff0000"/>
    <path d="M783.0 229.95 L783.0 329.95 428.0 329.95 428.0 229.95 783.0 229.95" fill="#ff0000"/>
    <path d="M1079.0 230.0 L1079.0 330.0 784.0 330.0 784.0 230.0 1079.0 230.0" fill="#ff0000"/>
  </g>
</svg>
