<?xml version="1.0" encoding="UTF-8" standalone="no"?>
<svg xmlns:xlink="http://www.w3.org/1999/xlink" height="56.7px" width="56.7px" xmlns="http://www.w3.org/2000/svg">
  <g transform="matrix(1.0, 0.0, 0.0, 1.0, 0.0, -0.1)">
    <path d="M48.4 48.4 L48.35 48.4 Q44.5 52.45 39.45 54.6 L39.4 54.6 Q34.1 56.8 28.35 56.8 22.5 56.8 17.15 54.55 12.8 52.65 9.35 49.55 L9.25 49.45 8.3 48.35 8.25 48.35 Q4.1 43.5 2.25 39.0 L2.25 38.95 Q0.0 33.7 0.0 28.05 0.0 22.25 2.3 17.0 4.15 12.65 7.35 9.15 L7.4 9.2 8.55 8.1 Q12.4 4.35 17.45 2.35 22.65 0.1 28.35 0.1 34.15 0.1 39.55 2.35 L39.5 2.35 Q44.1 4.35 47.8 7.8 L47.8 7.85 48.55 8.6 Q52.35 12.5 54.5 17.55 56.7 22.75 56.7 28.4 56.7 34.2 54.45 39.5 52.3 44.5 48.4 48.4" fill="#ff0000"/>
  </g>
</svg>
