<?xml version="1.0" encoding="UTF-8" standalone="no"?>
<svg xmlns:xlink="http://www.w3.org/1999/xlink" height="257.55px" width="184.5px" xmlns="http://www.w3.org/2000/svg">
  <g transform="matrix(1.0, 0.0, 0.0, 1.0, -0.05, 0.0)">
    <path d="M184.55 0.0 L184.55 64.0 133.1 64.0 133.1 97.5 106.6 97.5 106.6 109.5 91.6 109.5 91.6 230.0 106.6 230.0 106.6 237.05 133.1 237.05 133.1 257.55 23.55 257.55 23.55 245.05 26.05 245.05 26.05 240.05 45.05 240.05 45.05 236.05 53.55 236.05 53.55 226.0 65.05 226.0 65.05 105.0 53.55 105.0 53.55 99.0 45.05 99.0 45.05 85.0 26.05 85.0 26.05 59.5 0.05 59.5 0.05 12.95 141.1 12.95 141.1 0.0 184.55 0.0" fill="#ff0000"/>
  </g>
</svg>
