<?xml version="1.0" encoding="UTF-8" standalone="no"?>
<svg xmlns:xlink="http://www.w3.org/1999/xlink" height="42.0px" width="215.0px" xmlns="http://www.w3.org/2000/svg">
  <g transform="matrix(1.0, 0.0, 0.0, 1.0, 0.0, 0.0)">
    <path d="M166.0 20.0 L215.0 20.0 215.0 42.0 166.0 42.0 166.0 20.0" fill="#ff0000"/>
    <path d="M166.0 0.0 L215.0 0.0 215.0 20.0 166.0 20.0 166.0 0.0" fill="#ff0000"/>
    <path d="M166.0 42.0 L156.0 42.0 156.0 20.0 166.0 20.0 166.0 42.0" fill="#ff0000"/>
    <path d="M166.0 0.0 L166.0 20.0 156.0 20.0 156.0 0.0 166.0 0.0" fill="#ff0000"/>
    <path d="M0.0 20.0 L0.0 0.0 156.0 0.0 156.0 20.0 0.0 20.0" fill="#ff0000"/>
    <path d="M156.0 42.0 L0.0 42.0 0.0 20.0 156.0 20.0 156.0 42.0" fill="#ff0000"/>
  </g>
</svg>
