<?xml version="1.0" encoding="UTF-8" standalone="no"?>
<svg xmlns:xlink="http://www.w3.org/1999/xlink" height="256.0px" width="256.0px" xmlns="http://www.w3.org/2000/svg">
  <g transform="matrix(1.0, 0.0, 0.0, 1.0, 0.0, 0.0)">
    <path d="M248.0 52.0 L248.0 5.0 8.0 5.0 8.0 52.0 248.0 52.0 M80.0 241.0 L240.0 241.0 240.0 243.0 80.0 243.0 80.0 241.0 M246.5 217.5 Q245.0 216.0 242.0 216.0 L14.0 216.0 Q8.0 216.0 8.0 222.0 L8.0 243.0 Q8.0 246.0 9.5 247.5 11.0 249.0 14.0 249.0 L242.0 249.0 Q248.0 249.0 248.0 243.0 L248.0 222.0 Q248.0 219.0 246.5 217.5 M256.0 0.0 L256.0 256.0 0.0 256.0 0.0 0.0 256.0 0.0" fill="#000000" fill-rule="evenodd" stroke="none"/>
    <path d="M248.0 52.0 L8.0 52.0 8.0 5.0 248.0 5.0 248.0 52.0 M80.0 241.0 L80.0 243.0 240.0 243.0 240.0 241.0 80.0 241.0 M13.0 244.0 Q12.15 243.15 12.05 241.55 L12.0 223.9 Q12.0 220.0 16.0 220.0 L240.0 220.0 Q242.0 220.0 243.05 221.0 244.0 221.95 244.0 223.9 L244.0 241.1 Q244.0 245.0 240.0 245.0 L15.55 245.0 15.05 244.95 15.0 244.95 Q13.7 244.75 13.0 244.0" fill="#e80000" fill-rule="evenodd" stroke="none"/>
    <path d="M9.5 247.5 L13.0 244.0 Q13.7 244.75 15.0 244.95 L15.05 244.95 15.55 245.0 240.0 245.0 Q244.0 245.0 244.0 241.1 L244.0 223.9 Q244.0 221.95 243.05 221.0 L246.5 217.5 Q248.0 219.0 248.0 222.0 L248.0 243.0 Q248.0 249.0 242.0 249.0 L14.0 249.0 Q11.0 249.0 9.5 247.5" fill="#990000" fill-rule="evenodd" stroke="none"/>
    <path d="M9.5 247.5 Q8.0 246.0 8.0 243.0 L8.0 222.0 Q8.0 216.0 14.0 216.0 L242.0 216.0 Q245.0 216.0 246.5 217.5 L243.05 221.0 Q242.0 220.0 240.0 220.0 L16.0 220.0 Q12.0 220.0 12.0 223.9 L12.05 241.55 Q12.15 243.15 13.0 244.0 L9.5 247.5" fill="#ff7575" fill-rule="evenodd" stroke="none"/>
    <path d="M248.0 212.8 L8.0 212.8 8.0 196.0 248.0 196.0 248.0 212.8" fill="#ff0000"/>
  </g>
</svg>
