<?xml version="1.0" encoding="UTF-8" standalone="no"?>
<svg xmlns:xlink="http://www.w3.org/1999/xlink" height="256.0px" width="512.0px" xmlns="http://www.w3.org/2000/svg">
  <g transform="matrix(1.0, 0.0, 0.0, 1.0, 0.0, 0.0)">
    <path d="M512.0 15.0 L512.0 234.0 0.0 234.0 0.0 15.0 3.0 15.0 349.0 15.0 423.0 15.0 512.0 15.0 M338.9 228.0 L344.0 228.0 344.0 19.0 338.9 19.0 10.9 19.0 6.0 19.0 6.0 228.0 10.9 228.0 338.9 228.0" fill="#000000" fill-rule="evenodd" stroke="none"/>
    <path d="M0.0 15.0 L0.0 0.0 512.0 0.0 512.0 15.0 423.0 15.0 349.0 15.0 3.0 15.0 0.0 15.0 M512.0 234.0 L512.0 256.0 0.0 256.0 0.0 234.0 512.0 234.0 M338.9 19.0 L344.0 19.0 344.0 228.0 338.9 228.0 338.9 19.0 M10.9 228.0 L6.0 228.0 6.0 19.0 10.9 19.0 10.9 228.0" fill="#be3c28" fill-rule="evenodd" stroke="none"/>
    <path d="M338.9 228.0 L10.9 228.0 10.9 19.0 338.9 19.0 338.9 228.0" fill="#ff0000"/>
  </g>
</svg>
