<?xml version="1.0" encoding="UTF-8" standalone="no"?>
<svg xmlns:xlink="http://www.w3.org/1999/xlink" height="723.75px" width="1280.0px" xmlns="http://www.w3.org/2000/svg">
  <g transform="matrix(1.0, 0.0, 0.0, 1.0, 0.0, 3.75)">
    <path d="M1280.0 720.0 L0.0 720.0 0.0 0.0 1280.0 0.0 1280.0 720.0" fill="#1c264a" fill-rule="evenodd" stroke="none"/>
    <path d="M1280.0 720.0 L0.0 720.0 0.0 0.0 1280.0 0.0 1280.0 720.0" fill="#ff0000"/>
    <path d="M1280.0 0.0 L1280.0 27.0 0.0 27.0 0.0 0.0 1280.0 0.0" fill="#ff0000"/>
    <path d="M76.5 3.5 L76.5 18.5 51.4 18.5 51.4 3.5 76.5 3.5" fill="#ff0000"/>
    <path d="M158.0 5.25 L158.0 18.25 126.65 18.25 126.65 5.25 158.0 5.25" fill="#ff0000"/>
    <path d="M39.4 -3.75 L39.4 26.5 18.55 26.5 18.55 -3.75 39.4 -3.75" fill="#ff0000"/>
    <path d="M90.0 18.5 L90.0 3.5 114.05 3.5 114.05 18.5 90.0 18.5" fill="#ff0000"/>
    <path d="M249.8 18.25 L170.5 18.25 170.5 5.25 249.8 5.25 249.8 18.25" fill="#ff0000"/>
    <path d="M1190.95 18.5 L1167.4 18.5 1167.4 3.5 1163.45 3.5 1163.45 1.0 1190.95 1.0 1190.95 18.5" fill="#ff0000"/>
    <path d="M1225.45 19.5 L1207.95 19.5 1207.95 2.0 1206.95 2.0 1206.95 0.0 1225.45 0.0 1225.45 19.5" fill="#ff0000"/>
    <path d="M1260.95 19.0 L1241.95 19.0 1241.95 0.5 1260.95 0.5 1260.95 19.0" fill="#ff0000"/>
  </g>
</svg>
