<?xml version="1.0" encoding="UTF-8" standalone="no"?>
<svg xmlns:xlink="http://www.w3.org/1999/xlink" height="31.05px" width="168.0px" xmlns="http://www.w3.org/2000/svg">
  <g transform="matrix(1.0, 0.0, 0.0, 1.0, 1.45, 1.45)">
    <path d="M161.0 24.05 Q156.9 28.15 151.05 28.15 L14.1 28.15 Q8.25 28.15 4.1 24.05 0.0 19.9 0.0 14.1 0.0 8.25 4.1 4.1 8.25 0.0 14.1 0.0 L151.05 0.0 Q156.9 0.0 161.0 4.1 165.1 8.25 165.1 14.1 165.1 19.9 161.0 24.05" fill="#ff0000"/>
    <path d="M161.0 24.05 Q165.1 19.9 165.1 14.1 165.1 8.25 161.0 4.1 156.9 0.0 151.05 0.0 L14.1 0.0 Q8.25 0.0 4.1 4.1 0.0 8.25 0.0 14.1 0.0 19.9 4.1 24.05 8.25 28.15 14.1 28.15 L151.05 28.15 Q156.9 28.15 161.0 24.05 Z" fill="none" stroke="#5074c6" stroke-linecap="round" stroke-linejoin="round" stroke-width="2.95"/>
  </g>
</svg>
