<?xml version="1.0" encoding="UTF-8" standalone="no"?>
<svg xmlns:xlink="http://www.w3.org/1999/xlink" height="512.0px" width="256.0px" xmlns="http://www.w3.org/2000/svg">
  <g transform="matrix(1.0, 0.0, 0.0, 1.0, 0.0, 0.0)">
    <path d="M223.05 234.0 L246.0 234.0 246.0 182.0 223.05 182.0 33.05 182.0 10.0 182.0 10.0 234.0 33.05 234.0 223.05 234.0 M256.0 0.0 L256.0 512.0 0.0 512.0 0.0 0.0 256.0 0.0" fill="#000000" fill-rule="evenodd" stroke="none"/>
    <path d="M223.05 182.0 L246.0 182.0 246.0 234.0 223.05 234.0 223.05 182.0" fill="#ff0000"/>
    <path d="M33.05 234.0 L10.0 234.0 10.0 182.0 33.05 182.0 33.05 234.0" fill="#ff0000"/>
    <path d="M223.05 182.0 L223.05 234.0 33.05 234.0 33.05 182.0 223.05 182.0" fill="#ff0000"/>
    <path d="M253.0 244.0 L253.0 494.0 3.0 494.0 3.0 244.0 253.0 244.0" fill="#ff0000"/>
    <path d="M256.0 512.0 L0.0 512.0 0.0 494.0 256.0 494.0 256.0 512.0" fill="#ff0000"/>
    <path d="M255.0 179.0 L0.0 179.0 0.0 0.0 255.0 0.0 255.0 179.0" fill="#000000" fill-rule="evenodd" stroke="none"/>
    <path d="M3.0 244.0 L253.0 244.0 253.0 269.0 3.0 269.0 3.0 244.0" fill="#333333" fill-opacity="0.49803922" fill-rule="evenodd" stroke="none"/>
  </g>
</svg>
