<?xml version="1.0" encoding="UTF-8" standalone="no"?>
<svg xmlns:xlink="http://www.w3.org/1999/xlink" height="17.8px" width="17.4px" xmlns="http://www.w3.org/2000/svg">
  <g transform="matrix(1.0, 0.0, 0.0, 1.0, 17.45, -4.9)">
    <path d="M-4.6 6.45 L-4.6 4.9 -0.05 4.9 -0.05 9.3 -1.4 9.3 -1.4 6.45 -4.6 6.45 M-16.05 9.3 L-17.4 9.3 -17.4 4.9 -12.85 4.9 -12.85 6.45 -16.05 6.45 -16.05 9.3 M-12.9 22.7 L-17.45 22.7 -17.45 18.3 -16.1 18.3 -16.1 21.15 -12.9 21.15 -12.9 22.7 M-1.45 18.3 L-0.1 18.3 -0.1 22.7 -4.65 22.7 -4.65 21.15 -1.45 21.15 -1.45 18.3 M-12.05 17.15 L-12.05 10.5 -5.4 10.5 -5.4 17.15 -12.05 17.15" fill="#ffffff" fill-rule="evenodd" stroke="none"/>
  </g>
</svg>
