<?xml version="1.0" encoding="UTF-8" standalone="no"?>
<svg xmlns:xlink="http://www.w3.org/1999/xlink" height="20.0px" width="572.0px" xmlns="http://www.w3.org/2000/svg">
  <g transform="matrix(1.0, 0.0, 0.0, 1.0, 0.0, 0.0)">
    <path d="M0.0 4.0 L0.0 16.0 Q0.0 20.0 4.0 20.0 L568.05 20.0 Q572.0 20.0 572.0 16.0 L572.0 4.0 Q572.0 0.0 568.05 0.0 L4.0 0.0 Q0.0 0.0 0.0 4.0">
      <animate attributeName="d" dur="2s" repeatCount="indefinite" values="M0.0 4.0 L0.0 16.0 Q0.0 20.0 4.0 20.0 L568.05 20.0 Q572.0 20.0 572.0 16.0 L572.0 4.0 Q572.0 0.0 568.05 0.0 L4.0 0.0 Q0.0 0.0 0.0 4.0;M0.0 4.0 L0.0 16.0 Q0.0 20.0 4.0 20.0 L568.05 20.0 Q572.0 20.0 572.0 16.0 L572.0 4.0 Q572.0 0.0 568.05 0.0 L4.0 0.0 Q0.0 0.0 0.0 4.0"/>
    </path>
    <path d="M0.0 4.0 Q0.0 0.0 4.0 0.0 L568.05 0.0 Q572.0 0.0 572.0 4.0 L572.0 16.0 Q572.0 20.0 568.05 20.0 L4.0 20.0 Q0.0 20.0 0.0 16.0 L0.0 4.0" fill="none" stroke="#000000" stroke-linecap="round" stroke-linejoin="round" stroke-opacity="0.0" stroke-width="1.0">
      <animate attributeName="stroke" dur="2s" repeatCount="indefinite" values="#000000;#000001"/>
      <animate attributeName="stroke-width" dur="2s" repeatCount="indefinite" values="0.0;0.0"/>
      <animate attributeName="fill-opacity" dur="2s" repeatCount="indefinite" values="0.0;0.0"/>
      <animate attributeName="d" dur="2s" repeatCount="indefinite" values="M0.0 4.0 Q0.0 0.0 4.0 0.0 L568.05 0.0 Q572.0 0.0 572.0 4.0 L572.0 16.0 Q572.0 20.0 568.05 20.0 L4.0 20.0 Q0.0 20.0 0.0 16.0 L0.0 4.0;M0.0 4.0 Q0.0 0.0 4.0 0.0 L568.05 0.0 Q572.0 0.0 572.0 4.0 L572.0 16.0 Q572.0 20.0 568.05 20.0 L4.0 20.0 Q0.0 20.0 0.0 16.0 L0.0 4.0"/>
    </path>
  </g>
</svg>
