<?xml version="1.0" encoding="UTF-8" standalone="no"?>
<svg xmlns:xlink="http://www.w3.org/1999/xlink" height="16.0px" width="16.0px" xmlns="http://www.w3.org/2000/svg">
  <g transform="matrix(1.0, 0.0, 0.0, 1.0, 8.0, 8.0)">
    <path d="M8.0 -8.0 L8.0 8.0 -8.0 8.0 -8.0 -8.0 8.0 -8.0" fill="#ff0000"/>
    <path d="M3.0 1.65 L3.0 4.3 2.75 4.3 2.75 4.9 -2.4 4.9 -2.4 1.25 2.2 1.25 2.2 1.5 2.75 1.5 2.75 1.65 3.0 1.65" fill="#ffffff" fill-rule="evenodd" stroke="none"/>
    <path d="M2.15 1.35 Q2.5 1.65 2.5 2.1 L2.4 2.55 2.1 3.05 1.65 3.5 1.2 3.95 1.05 4.15 2.5 4.15 2.5 4.8 -0.05 4.8 0.25 4.05 1.05 3.2 1.6 2.55 1.75 2.15 1.65 1.75 1.3 1.65 0.95 1.75 0.75 2.25 0.05 2.15 Q0.15 1.55 0.45 1.3 0.8 1.05 1.3 1.05 1.85 1.05 2.15 1.35" fill="#000000" fill-rule="evenodd" stroke="none"/>
    <path d="M-1.25 4.8 L-1.25 2.1 -2.2 2.65 -2.2 2.0 -1.6 1.65 -1.15 1.05 -0.55 1.05 -0.55 4.8 -1.25 4.8" fill="#000000" fill-rule="evenodd" stroke="none"/>
  </g>
</svg>
