<?xml version="1.0" encoding="UTF-8" standalone="no"?>
<svg xmlns:xlink="http://www.w3.org/1999/xlink" height="16.0px" width="16.0px" xmlns="http://www.w3.org/2000/svg">
  <g transform="matrix(1.0, 0.0, 0.0, 1.0, 8.0, 8.0)">
    <path d="M-8.0 -8.0 L8.0 -8.0 8.0 8.0 -8.0 8.0 -8.0 -8.0" fill="#ff0000"/>
    <path d="M3.0 1.65 L3.0 4.3 2.75 4.3 2.75 4.9 -2.4 4.9 -2.4 1.25 2.2 1.25 2.2 1.5 2.75 1.5 2.75 1.65 3.0 1.65" fill="#ffffff" fill-rule="evenodd" stroke="none"/>
    <path d="M1.25 1.05 Q1.8 1.05 2.1 1.45 2.45 1.9 2.45 2.95 2.45 4.0 2.1 4.45 1.8 4.85 1.25 4.85 0.7 4.85 0.4 4.45 0.05 4.0 0.05 2.95 0.05 1.9 0.4 1.45 0.7 1.05 1.25 1.05 M0.9 2.05 L0.8 2.95 0.9 3.85 1.05 4.2 1.25 4.25 1.5 4.2 1.65 3.9 1.7 2.95 1.65 2.05 1.5 1.75 1.25 1.65 1.05 1.75 0.9 2.05 M-2.1 2.0 L-1.5 1.65 -1.05 1.05 -0.5 1.05 -0.5 4.8 -1.2 4.8 -1.2 2.1 -2.1 2.65 -2.1 2.0" fill="#000000" fill-rule="evenodd" stroke="none"/>
  </g>
</svg>
