<?xml version="1.0" encoding="UTF-8" standalone="no"?>
<svg xmlns:xlink="http://www.w3.org/1999/xlink" height="16.0px" width="16.0px" xmlns="http://www.w3.org/2000/svg">
  <g transform="matrix(1.0, 0.0, 0.0, 1.0, 8.0, 8.0)">
    <path d="M8.0 -8.0 L8.0 8.0 -8.0 8.0 -8.0 -8.0 8.0 -8.0" fill="#ff0000"/>
    <path d="M3.0 1.65 L3.0 4.3 2.75 4.3 2.75 4.9 -2.4 4.9 -2.4 1.25 2.2 1.25 2.2 1.5 2.75 1.5 2.75 1.65 3.0 1.65" fill="#ffffff" fill-rule="evenodd" stroke="none"/>
    <path d="M0.9 1.05 L0.9 3.4 1.35 3.4 1.35 4.05 0.9 4.05 0.9 4.8 0.2 4.8 0.2 4.05 -1.35 4.05 -1.35 3.4 0.3 1.05 0.9 1.05 M0.2 2.15 L-0.7 3.4 0.2 3.4 0.2 2.15" fill="#000000" fill-rule="evenodd" stroke="none"/>
  </g>
</svg>
