<?xml version="1.0" encoding="UTF-8" standalone="no"?>
<svg xmlns:xlink="http://www.w3.org/1999/xlink" height="31.05px" width="62.95px" xmlns="http://www.w3.org/2000/svg">
  <g transform="matrix(1.0, 0.0, 0.0, 1.0, 33.8, 13.6)">
    <path d="M20.0 -12.1 L20.0 -12.5 21.0 -12.5 21.0 -12.75 22.65 -12.75 22.65 -13.05 22.75 -13.05 22.75 -13.25 29.15 -13.25 29.15 -3.6 -3.95 -3.6 -3.95 -3.5 -4.1 -3.5 -4.1 0.75 -6.0 0.75 -6.0 4.1 -9.55 4.1 -9.55 6.3 -16.75 6.3 -16.75 7.0 -18.35 7.0 -18.35 16.5 -21.95 16.5 -21.95 17.45 -33.8 17.45 -33.8 -13.6 -15.85 -13.6 -15.85 -12.1 20.0 -12.1" fill="#ff0000"/>
  </g>
</svg>
