<?xml version="1.0" encoding="UTF-8" standalone="no"?>
<svg xmlns:xlink="http://www.w3.org/1999/xlink" height="1536.0px" width="1152.0px" xmlns="http://www.w3.org/2000/svg">
  <g transform="matrix(1.0, 0.0, 0.0, 1.0, 0.0, 0.0)">
    <path d="M128.0 512.0 L128.0 1024.0 0.0 1024.0 0.0 512.0 128.0 512.0" fill="#ff0000"/>
    <path d="M128.0 1024.0 L128.0 1536.0 0.0 1536.0 0.0 1024.0 128.0 1024.0" fill="#ff0000"/>
    <path d="M128.0 0.0 L128.0 512.0 0.0 512.0 0.0 0.0 128.0 0.0" fill="#ff0000"/>
    <path d="M384.0 512.0 L384.0 1024.0 256.0 1024.0 256.0 512.0 384.0 512.0" fill="#ff0000"/>
    <path d="M384.0 1024.0 L384.0 1536.0 256.0 1536.0 256.0 1024.0 384.0 1024.0" fill="#ff0000"/>
    <path d="M384.0 0.0 L384.0 512.0 256.0 512.0 256.0 0.0 384.0 0.0" fill="#ff0000"/>
    <path d="M640.0 512.0 L640.0 1024.0 512.0 1024.0 512.0 512.0 640.0 512.0" fill="#ff0000"/>
    <path d="M640.0 1024.0 L640.0 1536.0 512.0 1536.0 512.0 1024.0 640.0 1024.0" fill="#ff0000"/>
    <path d="M640.0 0.0 L640.0 512.0 512.0 512.0 512.0 0.0 640.0 0.0" fill="#ff0000"/>
    <path d="M896.0 512.0 L896.0 1024.0 768.0 1024.0 768.0 512.0 896.0 512.0" fill="#ff0000"/>
    <path d="M896.0 1024.0 L896.0 1536.0 768.0 1536.0 768.0 1024.0 896.0 1024.0" fill="#ff0000"/>
    <path d="M896.0 0.0 L896.0 512.0 768.0 512.0 768.0 0.0 896.0 0.0" fill="#ff0000"/>
    <path d="M1152.0 512.0 L1152.0 1024.0 1024.0 1024.0 1024.0 512.0 1152.0 512.0" fill="#ff0000"/>
    <path d="M1152.0 1024.0 L1152.0 1536.0 1024.0 1536.0 1024.0 1024.0 1152.0 1024.0" fill="#ff0000"/>
    <path d="M1152.0 0.0 L1152.0 512.0 1024.0 512.0 1024.0 0.0 1152.0 0.0" fill="#ff0000"/>
  </g>
</svg>
