<?xml version="1.0" encoding="UTF-8" standalone="no"?>
<svg xmlns:xlink="http://www.w3.org/1999/xlink" height="178.1px" width="131.9px" xmlns="http://www.w3.org/2000/svg">
  <g transform="matrix(1.0, 0.0, 0.0, 1.0, 3.85, 3.0)">
    <path d="M125.0 -1.05 L128.05 172.95 6.05 175.1 5.8 162.1 114.8 160.2 111.95 -0.8 125.0 -1.05" fill="#ff0000"/>
    <path d="M127.0 1.05 L124.0 175.05 2.0 172.95 2.2 159.95 111.2 161.85 114.0 0.85 127.0 1.05" fill="#ff0000"/>
    <path d="M125.0 1.05 L122.0 175.05 0.0 172.95 0.2 159.95 109.2 161.85 112.0 0.85 125.0 1.05" fill="#ff0000"/>
    <path d="M-2.6 -3.0 L124.05 -3.0 124.05 173.0 -3.85 173.0 -3.85 89.4 -2.6 89.4 -2.6 -3.0" fill="#ff0000"/>
  </g>
</svg>
