<?xml version="1.0" encoding="UTF-8" standalone="no"?>
<svg xmlns:xlink="http://www.w3.org/1999/xlink" height="223.75px" width="295.95px" xmlns="http://www.w3.org/2000/svg">
  <g transform="matrix(1.0, 0.0, 0.0, 1.0, 147.0, 111.0)">
    <path d="M122.65 -95.35 L141.8 -95.35 141.55 -88.05 148.95 -87.25 148.95 -8.6 141.85 100.2 120.85 99.2 120.8 112.75 -144.0 112.75 -144.0 73.4 122.65 73.4 122.65 -95.35" fill="#000000" fill-opacity="0.24705882" fill-rule="evenodd" stroke="none"/>
    <path d="M-77.5 -103.9 L-77.5 110.1 -146.95 110.1 -147.0 -77.7 -143.05 -77.7 -143.05 -95.0 -126.05 -95.0 -126.05 -97.95 -113.8 -97.95 -113.8 -106.0 -77.95 -103.95 -77.5 -103.9" fill="#ff0000"/>
    <path d="M137.25 -89.55 L148.95 -89.55 137.0 98.0 116.0 97.0 115.75 110.0 -78.0 110.0 -78.0 -103.9 -37.0 -101.0 119.0 -111.0 120.25 -97.55 137.0 -98.0 137.25 -89.55" fill="#ff0000"/>
  </g>
</svg>
