<?xml version="1.0" encoding="UTF-8" standalone="no"?>
<svg xmlns:xlink="http://www.w3.org/1999/xlink" height="285.05px" width="297.15px" xmlns="http://www.w3.org/2000/svg">
  <g transform="matrix(1.0, 0.0, 0.0, 1.0, 146.0, 140.0)">
    <path d="M94.6 -137.0 L117.4 -137.0 117.4 -42.95 151.15 -42.95 151.15 145.05 -101.15 145.05 -101.15 121.9 94.6 121.9 94.6 -137.0" fill="#000000" fill-opacity="0.24705882" fill-rule="evenodd" stroke="none"/>
    <path d="M-79.0 -140.0 L-79.0 141.5 -111.0 141.5 -111.0 48.5 -112.0 48.5 -112.0 47.05 -146.0 47.05 -146.0 -140.0 -79.0 -140.0" fill="#ff0000"/>
    <path d="M-79.0 -140.0 L114.05 -140.0 114.05 -45.5 146.95 -45.5 146.95 141.5 -79.0 142.0 -79.0 141.5 -79.0 -140.0" fill="#ff0000"/>
  </g>
</svg>
