<?xml version="1.0" encoding="UTF-8" standalone="no"?>
<svg xmlns:xlink="http://www.w3.org/1999/xlink" height="646.0px" width="646.0px" xmlns="http://www.w3.org/2000/svg">
  <g transform="matrix(1.0, 0.0, 0.0, 1.0, -319.15, -36.05)">
    <path d="M961.2 359.05 Q961.2 491.2 867.75 584.65 774.3 678.1 642.15 678.1 570.15 678.1 509.65 650.35 L615.25 650.35 615.25 308.35 326.75 308.35 Q341.55 208.45 416.55 133.45 510.0 40.0 642.15 40.0 774.3 40.0 867.75 133.45 961.2 226.9 961.2 359.05" fill="#002f6d" fill-rule="evenodd" stroke="none"/>
    <path d="M965.15 682.05 L319.15 682.05 319.15 650.35 615.25 650.35 615.25 308.35 319.15 308.35 319.15 36.05 965.15 36.05 965.15 682.05" fill="#ff0000"/>
  </g>
</svg>
