<?xml version="1.0" encoding="UTF-8" standalone="no"?>
<svg xmlns:xlink="http://www.w3.org/1999/xlink" height="646.0px" width="646.0px" xmlns="http://www.w3.org/2000/svg">
  <g transform="matrix(1.0, 0.0, 0.0, 1.0, -163.0, -36.05)">
    <path d="M805.05 359.05 Q805.05 491.2 711.6 584.65 618.15 678.1 486.0 678.1 414.0 678.1 353.5 650.35 L615.25 650.35 615.25 308.35 170.6 308.35 Q185.4 208.45 260.4 133.45 353.85 40.0 486.0 40.0 618.15 40.0 711.6 133.45 805.05 226.9 805.05 359.05" fill="#002f6d" fill-rule="evenodd" stroke="none"/>
    <path d="M809.0 682.05 L163.0 682.05 163.0 650.35 615.25 650.35 615.25 308.35 163.0 308.35 163.0 36.05 809.0 36.05 809.0 682.05" fill="#ff0000"/>
  </g>
</svg>
