<?xml version="1.0" encoding="UTF-8" standalone="no"?>
<svg xmlns:xlink="http://www.w3.org/1999/xlink" height="1237.95px" width="510.0px" xmlns="http://www.w3.org/2000/svg">
  <g transform="matrix(1.0, 0.0, 0.0, 1.0, 255.0, 512.95)">
    <path d="M-182.4 -494.0 L-182.4 -512.95 174.6 -512.95 174.6 -494.0 255.0 -494.0 255.0 694.4 174.6 694.4 174.6 725.0 -182.4 725.0 -182.4 694.4 -255.0 694.4 -255.0 -494.0 -182.4 -494.0" fill="#434343" fill-rule="evenodd" stroke="none"/>
    <path d="M91.55 -94.0 L91.55 -84.95 96.75 -84.95 96.75 56.75 91.55 56.75 91.55 67.5 96.75 67.5 96.75 216.75 91.55 216.75 91.55 227.5 96.75 227.5 96.75 374.25 91.55 374.25 91.55 385.0 96.75 385.0 96.75 533.0 91.55 533.0 91.55 543.75 96.75 543.75 96.75 692.05 91.55 692.05 91.55 700.7 -92.85 700.7 -92.85 692.05 -97.0 692.05 -97.0 543.75 -92.85 543.75 -92.85 533.0 -97.0 533.0 -97.0 385.0 -92.85 385.0 -92.85 374.25 -97.0 374.25 -97.0 227.5 -92.85 227.5 -92.85 216.75 -97.0 216.75 -97.0 67.5 -92.85 67.5 -92.85 56.75 -97.0 56.75 -97.0 -84.95 -92.85 -84.95 -92.85 -94.0 91.55 -94.0" fill="#969696" fill-rule="evenodd" stroke="none"/>
    <path d="M91.55 -100.85 L91.55 -91.55 96.75 -91.55 96.75 54.25 91.55 54.25 91.55 65.0 96.75 65.0 96.75 213.0 91.55 213.0 91.55 223.75 96.75 223.75 96.75 292.05 91.55 292.05 91.55 300.7 -92.85 300.7 -92.85 292.05 -97.0 292.05 -97.0 223.75 -92.85 223.75 -92.85 213.0 -97.0 213.0 -97.0 65.0 -92.85 65.0 -92.85 54.25 -97.0 54.25 -97.0 -91.55 -92.85 -91.55 -92.85 -100.85 91.55 -100.85" fill="#969696" fill-rule="evenodd" stroke="none"/>
    <path d="M-97.0 -488.1 L-92.85 -488.1 -92.85 -496.05 91.55 -496.05 91.55 -488.1 96.75 -488.1 96.75 -345.75 91.55 -345.75 91.55 -334.95 96.75 -334.95 96.75 -187.0 91.55 -187.0 91.55 -176.2 96.75 -176.2 96.75 -107.95 91.55 -107.95 91.55 -99.3 -92.85 -99.3 -92.85 -107.95 -97.0 -107.95 -97.0 -176.2 -92.85 -176.2 -92.85 -187.0 -97.0 -187.0 -97.0 -334.95 -92.85 -334.95 -92.85 -345.75 -97.0 -345.75 -97.0 -488.1" fill="#969696" fill-rule="evenodd" stroke="none"/>
    <path d="M-92.85 -512.95 L91.55 -512.95 91.55 -496.05 -92.85 -496.05 -92.85 -512.95" fill="#ffffff" fill-rule="evenodd" stroke="none"/>
  </g>
</svg>
