<?xml version="1.0" encoding="UTF-8" standalone="no"?>
<svg xmlns:xlink="http://www.w3.org/1999/xlink" height="1611.7px" width="1599.1px" xmlns="http://www.w3.org/2000/svg">
  <g transform="matrix(1.0, 0.0, 0.0, 1.0, 579.1, 444.15)">
    <path d="M1014.15 536.2 Q1008.6 541.75 1000.5 542.05 L279.5 542.05 Q271.6 541.9 265.85 536.2 260.3 530.65 260.0 522.55 L260.0 454.05 1020.0 454.05 1020.0 522.55 Q1019.85 530.5 1014.15 536.2" fill="#9d2f21" fill-rule="evenodd" stroke="none"/>
    <path d="M1020.0 456.05 L260.0 456.05 260.0 454.05 1020.0 454.05 1020.0 456.05" fill="#000000" fill-rule="evenodd" stroke="none"/>
    <path d="M1020.0 202.0 L1020.0 282.0 648.0 282.0 648.0 202.0 1020.0 202.0" fill="#ff0000"/>
    <path d="M1020.0 204.0 L260.0 204.0 260.0 202.0 1020.0 202.0 1020.0 204.0" fill="#000000" fill-rule="evenodd" stroke="none"/>
    <path d="M632.0 202.0 L632.0 282.0 260.0 282.0 260.0 202.0 632.0 202.0" fill="#ff0000"/>
    <path d="M641.0 206.15 L641.0 430.15 639.0 430.15 639.0 206.15 641.0 206.15" fill="#000000" fill-rule="evenodd" stroke="none"/>
    <path d="M260.0 864.1 L1020.0 864.1 1020.0 866.1 260.0 866.1 260.0 864.1" fill="#000000" fill-rule="evenodd" stroke="none"/>
    <path d="M1020.0 436.05 L260.0 436.05 260.0 434.05 1020.0 434.05 1020.0 436.05" fill="#000000" fill-rule="evenodd" stroke="none"/>
    <path d="M404.8 998.6 L404.8 1078.6 276.0 1078.6 276.0 998.6 404.8 998.6" fill="#ff0000"/>
    <path d="M373.3 909.65 L373.3 989.65 276.0 989.65 276.0 909.65 373.3 909.65" fill="#ff0000"/>
    <path d="M373.35 1167.55 L276.0 1167.55 276.0 1087.55 373.35 1087.55 373.35 1167.55" fill="#ff0000"/>
    <path d="M-579.1 -443.55 L-579.1 -444.15 -517.1 -444.15 -517.1 -443.55 -579.1 -443.55" fill="#ff0000"/>
    <path d="M395.5 15.45 L395.5 94.6 316.0 94.6 316.0 15.45 395.5 15.45" fill="#ff0000"/>
    <path d="M963.9 15.45 L963.9 94.6 884.4 94.6 884.4 15.45 963.9 15.45" fill="#ff0000"/>
    <path d="M788.0 17.0 L788.0 57.05 491.95 57.05 491.95 17.0 788.0 17.0" fill="#ff0000"/>
    <path d="M518.65 584.1 L726.65 584.1 726.65 824.1 518.65 824.1 518.65 584.1" fill="#000000" fill-rule="evenodd" stroke="none"/>
    <path d="M522.65 588.2 L722.65 588.2 722.65 820.2 522.65 820.2 522.65 588.2" fill="#f2f2f2" fill-rule="evenodd" stroke="none"/>
    <path d="M722.6 588.2 L722.6 688.2 522.6 688.2 522.6 588.2 722.6 588.2" fill="#ff0000"/>
    <path d="M722.65 620.05 L522.65 620.05 522.65 588.05 722.65 588.05 722.65 620.05" fill="#9d2f21" fill-rule="evenodd" stroke="none"/>
  </g>
</svg>
