<?xml version="1.0" encoding="UTF-8" standalone="no"?>
<svg xmlns:xlink="http://www.w3.org/1999/xlink" height="574.1px" width="758.15px" xmlns="http://www.w3.org/2000/svg">
  <g transform="matrix(1.0, 0.0, 0.0, 1.0, -261.85, -279.05)">
    <path d="M388.15 745.3 L517.15 745.3 517.15 853.15 388.15 853.15 388.15 745.3" fill="#ff0000"/>
    <path d="M1020.0 283.25 L1020.0 367.9 856.05 367.9 856.05 396.4 840.4 396.4 840.4 406.35 812.85 406.35 812.85 369.3 648.0 369.3 648.0 283.25 1020.0 283.25" fill="#ff0000"/>
    <path d="M923.65 338.55 L1019.3 338.55 1019.3 418.55 923.65 418.55 923.65 338.55" fill="#ff0000"/>
    <path d="M458.35 379.0 L458.35 279.05 503.6 279.05 503.6 301.45 503.65 301.45 503.65 379.0 458.35 379.0" fill="#ff0000"/>
    <path d="M316.5 295.05 L316.5 379.0 261.85 379.0 261.85 295.05 316.5 295.05" fill="#ff0000"/>
    <path d="M382.0 295.05 L382.0 379.0 327.35 379.0 327.35 295.05 382.0 295.05" fill="#ff0000"/>
    <path d="M447.5 295.05 L447.5 379.0 392.85 379.0 392.85 295.05 447.5 295.05" fill="#ff0000"/>
    <path d="M514.5 279.05 L559.75 279.05 559.75 301.45 559.8 301.45 559.8 379.0 514.5 379.0 514.5 279.05" fill="#ff0000"/>
    <path d="M570.65 279.05 L615.9 279.05 615.9 301.45 615.95 301.45 615.95 379.0 570.65 379.0 570.65 279.05" fill="#ff0000"/>
    <path d="M715.05 682.15 L715.05 721.55 637.55 721.55 637.55 740.5 583.35 740.5 583.35 772.25 527.05 772.25 527.05 682.15 715.05 682.15" fill="#ff0000"/>
    <path d="M366.95 456.3 L422.95 456.3 422.95 558.8 366.95 558.8 366.95 456.3" fill="#ff0000"/>
    <path d="M857.05 559.7 L857.05 457.2 913.05 457.2 913.05 559.7 857.05 559.7" fill="#ff0000"/>
    <path d="M1019.95 584.1 L1019.95 824.1 779.95 824.1 779.95 584.1 1019.95 584.1" fill="#000000" fill-rule="evenodd" stroke="none"/>
    <path d="M1015.95 588.2 L1015.95 820.2 783.95 820.2 783.95 588.2 1015.95 588.2" fill="#f2f2f2" fill-rule="evenodd" stroke="none"/>
    <path d="M783.85 688.2 L783.85 588.2 1015.85 588.2 1015.85 688.2 783.85 688.2" fill="#ff0000"/>
    <path d="M783.95 588.2 L1015.95 588.2 1015.95 628.2 783.95 628.2 783.95 588.2" fill="#9d2f21" fill-rule="evenodd" stroke="none"/>
  </g>
</svg>
