<?xml version="1.0" encoding="UTF-8" standalone="no"?>
<svg xmlns:xlink="http://www.w3.org/1999/xlink" height="1400.0px" width="1280.0px" xmlns="http://www.w3.org/2000/svg">
  <g transform="matrix(1.0, 0.0, 0.0, 1.0, 0.0, 0.0)">
    <path d="M869.2 237.05 L869.2 405.1 688.15 405.1 688.15 237.05 869.2 237.05" fill="#000000" fill-rule="evenodd" stroke="none"/>
    <path d="M0.0 0.0 L1280.0 0.0 1280.0 1400.0 0.0 1400.0 0.0 0.0" fill="#ff0000"/>
    <path d="M1044.0 0.0 L1044.0 1400.0 236.0 1400.0 236.0 0.0 1044.0 0.0" fill="#000000" fill-rule="evenodd" stroke="none"/>
    <path d="M240.0 0.0 L1040.0 0.0 1040.0 1400.0 240.0 1400.0 240.0 0.0" fill="#f2f2f2" fill-rule="evenodd" stroke="none"/>
    <path d="M1019.95 458.1 L1019.95 598.1 260.0 598.1 260.0 458.1 1019.95 458.1" fill="#ff0000"/>
    <path d="M1019.95 0.0 L1019.95 160.0 260.0 160.0 260.0 0.0 1019.95 0.0" fill="#ff0000"/>
    <path d="M1020.0 93.55 Q1019.8 101.5 1014.15 107.15 1008.5 112.8 1000.55 113.0 L279.5 113.0 Q271.5 112.8 265.85 107.15 260.2 101.5 260.0 93.55 L260.0 3.0 1020.0 3.0 1020.0 93.55" fill="#000000" fill-rule="evenodd" stroke="none"/>
    <path d="M1020.0 90.55 Q1019.8 98.5 1014.15 104.15 1008.5 109.8 1000.55 110.0 L279.5 110.0 Q271.5 109.8 265.85 104.15 260.2 98.5 260.0 90.55 L260.0 0.0 1020.0 0.0 1020.0 90.55" fill="#9d2f21" fill-rule="evenodd" stroke="none"/>
  </g>
</svg>
