<?xml version="1.0" encoding="UTF-8" standalone="no"?>
<svg xmlns:xlink="http://www.w3.org/1999/xlink" height="340.45px" width="255.85px" xmlns="http://www.w3.org/2000/svg">
  <g transform="matrix(1.0, 0.0, 0.0, 1.0, 33.05, 22.05)">
    <path d="M-6.85 151.25 L-6.85 55.3 -12.4 55.3 -12.4 29.1 -33.05 29.1 -33.05 -22.05 195.55 -22.05 Q202.15 -15.3 206.4 -9.4 L193.15 -9.4 193.15 5.05 213.75 5.05 Q217.85 21.55 195.55 28.75 L197.9 28.75 197.9 151.25 196.9 151.25 -6.85 151.25" fill="#ff0000"/>
    <path d="M196.9 151.25 L196.9 286.7 222.8 286.7 222.8 301.2 193.35 301.2 193.35 318.4 -24.35 318.4 -24.35 278.35 -6.85 278.35 -6.85 151.25 196.9 151.25" fill="#ff0000"/>
  </g>
</svg>
