<?xml version="1.0" encoding="UTF-8" standalone="no"?>
<svg xmlns:xlink="http://www.w3.org/1999/xlink" height="3.0px" width="28.0px" xmlns="http://www.w3.org/2000/svg">
  <g transform="matrix(1.0, 0.0, 0.0, 1.0, 0.0, -13.0)">
    <path d="M28.0 16.0 L24.0 16.0 24.0 15.0 28.0 15.0 28.0 16.0 M22.0 16.0 L18.0 16.0 18.0 15.0 22.0 15.0 22.0 16.0 M6.0 16.0 L6.0 15.0 10.0 15.0 10.0 16.0 6.0 16.0 M4.0 16.0 L0.0 16.0 0.0 15.95 0.0 13.0 4.0 13.0 4.0 16.0 M12.0 15.0 L16.0 15.0 16.0 16.0 12.0 16.0 12.0 15.0" fill="#ffffff" fill-rule="evenodd" stroke="none"/>
  </g>
</svg>
