<?xml version="1.0" encoding="UTF-8" standalone="no"?>
<svg xmlns:xlink="http://www.w3.org/1999/xlink" height="166.5px" width="200.15px" xmlns="http://www.w3.org/2000/svg">
  <g transform="matrix(1.0, 0.0, 0.0, 1.0, 0.05, 7.55)">
    <path d="M187.5 158.95 L70.45 148.65 69.75 145.55 16.55 152.85 1.95 24.55 43.3 18.7 52.5 17.6 78.35 14.2 80.2 -5.55 200.1 5.45 187.5 158.95" fill="#000000" fill-opacity="0.4" fill-rule="evenodd" stroke="none"/>
    <path d="M187.75 113.1 L41.3 113.1 41.3 16.7 76.35 12.2 78.2 -7.55 198.1 3.45 187.75 113.1" fill="#ff0000"/>
    <path d="M10.7 112.95 L-0.05 22.55 59.65 14.35 59.65 112.95 10.7 112.95" fill="#ff0000"/>
    <path d="M10.7 112.95 L15.2 150.95" fill="none" stroke="#666666" stroke-linecap="round" stroke-linejoin="round" stroke-width="1.0"/>
    <path d="M188.65 112.85 L185.5 156.95 68.45 146.65 67.75 143.55 14.55 150.85 10.55 112.85 188.65 112.85" fill="#ff0000"/>
  </g>
</svg>
