<?xml version="1.0" encoding="UTF-8" standalone="no"?>
<svg xmlns:xlink="http://www.w3.org/1999/xlink" height="3285.65px" width="1278.0px" xmlns="http://www.w3.org/2000/svg">
  <g transform="matrix(1.0, 0.0, 0.0, 1.0, 0.0, 0.0)">
    <path d="M1136.0 0.0 L1278.0 0.0 1278.0 1642.8 1278.0 3285.65 1136.0 3285.65 1136.0 1642.8 1136.0 0.0" fill="#ff0000"/>
    <path d="M1136.0 3285.65 L994.0 3285.65 994.0 1642.8 994.0 0.0 1136.0 0.0 1136.0 1642.8 1136.0 3285.65" fill="#ff0000"/>
    <path d="M852.0 3285.65 L710.0 3285.65 710.0 1642.8 710.0 0.0 852.0 0.0 852.0 1642.8 852.0 3285.65" fill="#ff0000"/>
    <path d="M994.0 3285.65 L852.0 3285.65 852.0 1642.8 852.0 0.0 994.0 0.0 994.0 1642.8 994.0 3285.65" fill="#ff0000"/>
    <path d="M568.0 3285.65 L426.0 3285.65 426.0 1642.8 426.0 0.0 568.0 0.0 568.0 1642.8 568.0 3285.65" fill="#ff0000"/>
    <path d="M142.0 3285.65 L0.0 3285.65 0.0 1642.8 0.0 0.0 142.0 0.0 142.0 1642.8 142.0 3285.65" fill="#ff0000"/>
    <path d="M284.0 3285.65 L142.0 3285.65 142.0 1642.8 142.0 0.0 284.0 0.0 284.0 1642.8 284.0 3285.65" fill="#ff0000"/>
    <path d="M426.0 3285.65 L284.0 3285.65 284.0 1642.8 284.0 0.0 426.0 0.0 426.0 1642.8 426.0 3285.65" fill="#ff0000"/>
    <path d="M710.0 3285.65 L568.0 3285.65 568.0 1642.8 568.0 0.0 710.0 0.0 710.0 1642.8 710.0 3285.65" fill="#ff0000"/>
  </g>
</svg>
