<?xml version="1.0" encoding="UTF-8" standalone="no"?>
<svg xmlns:xlink="http://www.w3.org/1999/xlink" height="17.5px" width="23.0px" xmlns="http://www.w3.org/2000/svg">
  <g transform="matrix(1.0, 0.0, 0.0, 1.0, -0.45, -1.0)">
    <path d="M5.1 1.5 L23.45 1.5 23.45 18.45 5.1 18.5 Q3.2 18.5 1.75 16.95 0.45 15.5 0.45 13.8 L0.45 6.3 Q0.45 4.3 1.85 2.9 3.25 1.55 5.1 1.5" fill="#b0b0b4" fill-rule="evenodd" stroke="none"/>
    <path d="M23.0 1.0 L23.0 17.0 5.1 17.0 Q3.4 17.0 2.15 15.6 0.95 14.3 0.95 12.8 L0.95 5.3 Q0.95 3.5 2.2 2.25 3.45 1.05 5.15 1.0 L23.0 1.0" fill="#ff0000"/>
    <path d="M8.5 9.05 L15.55 5.05 15.55 13.05 8.5 9.05" fill="#464646" fill-rule="evenodd" stroke="none"/>
  </g>
</svg>
