<?xml version="1.0" encoding="UTF-8" standalone="no"?>
<svg xmlns:xlink="http://www.w3.org/1999/xlink" height="20.75px" width="26.7px" xmlns="http://www.w3.org/2000/svg">
  <g transform="matrix(1.0, 0.0, 0.0, 1.0, -11.5, -22.1)">
    <path d="M26.9 22.1 L27.35 22.1 27.35 42.85 26.9 42.85 26.9 22.1" fill="#ff0000"/>
    <path d="M27.35 22.1 L27.4 22.1 27.5 22.1 27.5 42.85 27.35 42.85 27.35 22.1" fill="#ff0000"/>
    <path d="M27.5 22.1 L27.55 22.1 27.55 26.5 28.1 26.55 28.5 26.6 28.6 26.65 28.65 26.65 28.65 27.0 29.05 27.0 30.85 27.0 31.3 27.0 32.55 27.15 32.55 27.1 32.9 27.15 32.9 27.05 36.6 36.75 38.2 40.9 Q34.95 42.0 31.4 42.5 L29.05 42.75 28.75 42.75 28.6 42.75 27.5 42.85 27.5 22.1" fill="#ff0000"/>
    <path d="M28.65 22.1 L29.05 22.1 30.3 22.1 30.3 22.35 31.95 22.35 32.65 27.0 31.55 27.0 31.4 27.0 30.85 26.95 29.05 26.7 28.75 26.7 28.65 26.65 28.65 22.1" fill="#ff0000"/>
    <path d="M28.1 22.1 L28.65 22.1 28.65 26.65 28.6 26.65 28.5 26.6 28.1 26.55 28.1 22.1 M32.65 27.0 L32.9 27.0 32.9 27.05 32.9 27.15 32.55 27.1 31.55 27.0 32.65 27.0" fill="#ff0000"/>
    <path d="M27.55 22.1 L28.1 22.1 28.1 26.55 27.55 26.5 27.55 22.1" fill="#ff0000"/>
    <path d="M29.05 26.7 L29.2 26.75 29.25 26.75 29.5 26.8 30.85 27.0 29.05 27.0 28.65 27.0 28.65 26.65 28.75 26.7 29.05 26.7" fill="#ff0000"/>
    <path d="M28.75 42.75 L28.75 42.85 27.5 42.85 28.6 42.75 28.75 42.75" fill="#ff0000"/>
    <path d="M24.5 42.8 L24.55 42.8 25.25 42.85 25.0 42.85 24.5 42.85 24.5 42.8 M25.25 22.15 L25.65 22.15 25.65 42.85 25.25 42.85 25.25 22.15" fill="#ff0000"/>
    <path d="M25.65 22.15 L25.65 22.1 26.9 22.1 26.9 42.85 25.65 42.85 25.65 22.15" fill="#ff0000"/>
    <path d="M24.5 42.8 Q18.65 42.6 11.5 40.4 L11.5 26.9 20.0 22.1 24.5 22.1 24.85 22.1 25.25 22.1 25.25 22.15 24.55 22.15 24.55 42.8 24.5 42.8" fill="#ff0000"/>
    <path d="M24.55 42.8 L24.55 22.15 25.25 22.15 25.25 42.85 24.55 42.8" fill="#ff0000"/>
  </g>
</svg>
