<?xml version="1.0" encoding="UTF-8" standalone="no"?>
<svg xmlns:xlink="http://www.w3.org/1999/xlink" height="41.8px" width="5.0px" xmlns="http://www.w3.org/2000/svg">
  <g transform="matrix(1.0, 0.0, 0.0, 1.0, -19.2, 1.75)">
    <path d="M19.2 36.65 L19.25 30.45 24.15 31.85 23.75 39.85 21.15 39.9 21.15 36.65 19.2 36.65" fill="#ff0000"/>
    <path d="M24.2 32.0 L24.2 32.45 24.2 32.0 M24.05 35.4 L23.8 40.0 21.8 40.05 23.05 39.9 23.2 39.9 23.45 39.75 23.5 39.65 23.6 39.15 24.05 35.4 M19.25 30.15 L19.35 29.45 19.35 29.75 19.25 30.15" fill="#ff0000"/>
    <path d="M19.8 13.95 L23.8 13.95 24.2 13.95 24.2 17.3 24.0 17.3 24.0 23.35 23.35 23.35 23.55 14.6 20.15 14.6 19.95 23.35 19.4 23.35 19.5 13.95 19.8 13.95" fill="#ff0000"/>
    <path d="M24.0 23.35 L24.0 29.1 24.15 29.1 24.2 32.0 24.2 32.45 24.05 35.4 23.6 39.15 23.5 39.65 23.45 39.75 23.2 39.9 23.05 39.9 23.35 23.35 24.0 23.35 M19.35 29.45 L19.4 23.35 19.95 23.35 19.85 29.1 19.7 29.3 19.55 29.55 19.4 29.7 19.35 29.75 19.35 29.45" fill="#ff0000"/>
    <path d="M21.8 40.05 L21.2 39.7 21.2 36.8 19.25 36.8 19.25 30.15 19.35 29.75 19.4 29.7 19.55 29.55 19.7 29.3 19.85 29.1 19.95 23.35 20.15 14.6 23.55 14.6 23.35 23.35 23.05 39.9 21.8 40.05" fill="#fefefe" fill-rule="evenodd" stroke="none"/>
    <path d="M19.8 13.95 L19.95 -1.75 23.8 -1.75 23.8 13.95 19.8 13.95" fill="#ff0000"/>
  </g>
</svg>
