<?xml version="1.0" encoding="UTF-8" standalone="no"?>
<svg xmlns:xlink="http://www.w3.org/1999/xlink" height="649.0px" width="1231.0px" xmlns="http://www.w3.org/2000/svg">
  <g transform="matrix(1.0, 0.0, 0.0, 1.0, -35.0, -17.0)">
    <path d="M1266.0 17.0 L1266.0 317.0 866.0 317.0 866.0 17.0 1266.0 17.0" fill="#ff0000"/>
    <path d="M803.0 25.0 L803.0 257.0 567.0 257.0 567.0 25.0 803.0 25.0" fill="#ff0000"/>
    <path d="M481.0 81.0 L481.0 127.8 307.0 127.8 307.0 81.0 481.0 81.0" fill="#ff0000"/>
    <path d="M486.0 22.0 L486.0 68.8 294.0 68.8 294.0 22.0 486.0 22.0" fill="#ff0000"/>
    <path d="M43.0 666.0 L43.0 530.0 491.0 530.0 491.0 666.0 43.0 666.0" fill="#ff0000"/>
    <path d="M35.0 322.6 L295.0 322.6 295.0 346.1 35.0 346.1 35.0 322.6 M295.0 451.6 L209.55 451.6 209.55 397.1 295.0 397.1 295.0 451.6 M97.05 397.1 L97.05 451.6 35.0 451.6 35.0 397.1 97.05 397.1" fill="#ff0000"/>
    <path d="M119.0 322.6 L119.0 167.0 245.0 167.0 245.0 322.6 119.0 322.6" fill="#ff0000"/>
    <path d="M35.0 167.0 L169.0 167.0 169.0 322.6 35.0 322.6 35.0 167.0" fill="#ff0000"/>
    <path d="M295.0 144.05 L295.0 166.0 35.0 166.0 35.0 144.05 295.0 144.05" fill="#ff0000"/>
  </g>
</svg>
