<?xml version="1.0" encoding="UTF-8" standalone="no"?>
<svg xmlns:xlink="http://www.w3.org/1999/xlink" height="344.0px" width="256.0px" xmlns="http://www.w3.org/2000/svg">
  <g transform="matrix(1.0, 0.0, 0.0, 1.0, 0.0, 0.0)">
    <path d="M0.0 0.0 L256.0 0.0 256.0 344.0 0.0 344.0 0.0 0.0" fill="#ff0000"/>
    <path d="M5.0 35.0 L69.0 35.0 69.0 99.0 5.0 99.0 5.0 35.0" fill="#ff0000"/>
    <path d="M136.0 74.9 L138.55 74.9 138.55 89.5 79.05 89.5 79.05 70.5 136.0 70.5 136.0 74.9" fill="#ff0000"/>
    <path d="M169.45 37.0 L169.45 57.0 74.85 57.0 74.85 37.0 169.45 37.0" fill="#ff0000"/>
    <path d="M256.0 3.0 L256.0 25.0 217.9 25.0 217.9 3.0 256.0 3.0" fill="#ff0000"/>
  </g>
</svg>
