<?xml version="1.0" encoding="UTF-8" standalone="no"?>
<svg xmlns:xlink="http://www.w3.org/1999/xlink" height="80.8px" width="257.05px" xmlns="http://www.w3.org/2000/svg">
  <g transform="matrix(1.0, 0.0, 0.0, 1.0, 128.0, 39.3)">
    <path d="M129.05 -0.15 L122.1 -0.15 122.1 5.1 117.75 5.1 117.75 5.5 67.0 5.5 67.0 9.5 55.0 9.5 55.0 41.5 -60.5 41.5 -60.5 -3.0 -76.5 7.4 -79.0 7.4 -79.0 9.0 -84.2 12.4 -86.6 12.4 -86.6 13.95 -89.0 15.5 -89.0 33.8 -128.0 33.8 -128.0 -17.0 -56.6 -17.0 -56.6 -22.0 -28.5 -22.0 -28.5 -39.3 129.05 -39.3 129.05 -0.15" fill="#ff0000"/>
  </g>
</svg>
