<?xml version="1.0" encoding="UTF-8" standalone="no"?>
<svg xmlns:xlink="http://www.w3.org/1999/xlink" height="77.5px" width="258.5px" xmlns="http://www.w3.org/2000/svg">
  <g transform="matrix(1.0, 0.0, 0.0, 1.0, 129.25, 38.75)">
    <path d="M101.25 -38.75 L101.25 -16.25 129.25 -16.25 129.25 -2.0 86.25 -2.0 86.25 5.0 21.5 5.0 21.5 14.5 -3.75 14.5 -3.75 38.75 -26.0 38.75 -26.0 23.0 -25.25 23.0 -25.25 15.5 -26.5 15.5 -26.5 4.5 -84.25 4.5 -84.25 15.5 -90.25 15.5 -90.25 20.5 -107.0 20.5 -107.0 26.25 -129.25 26.25 -129.25 -24.25 -51.75 -24.25 -51.75 -38.75 101.25 -38.75" fill="#ff0000"/>
  </g>
</svg>
