<?xml version="1.0" encoding="UTF-8" standalone="no"?>
<svg xmlns:xlink="http://www.w3.org/1999/xlink" height="66.0px" width="219.95px" xmlns="http://www.w3.org/2000/svg">
  <g transform="matrix(1.0, 0.0, 0.0, 1.0, 109.95, 33.0)">
    <path d="M-46.95 -14.5 L-46.95 -18.0 -37.45 -18.0 -37.45 -27.4 -8.9 -27.4 -8.9 -28.1 -7.1 -28.1 -7.1 -28.25 -6.6 -28.25 -6.6 -30.0 -3.45 -30.0 -3.45 -33.0 110.0 -33.0 110.0 6.95 96.2 6.95 96.2 33.0 -23.1 33.0 -23.1 19.8 -24.2 19.8 -24.2 18.75 -25.35 18.75 -25.35 17.5 -27.9 17.5 -27.9 17.75 -35.45 17.75 -35.45 16.0 -109.95 16.0 -109.95 -14.5 -46.95 -14.5" fill="#ff0000"/>
  </g>
</svg>
