<?xml version="1.0" encoding="UTF-8" standalone="no"?>
<svg xmlns:xlink="http://www.w3.org/1999/xlink" height="62.55px" width="197.85px" xmlns="http://www.w3.org/2000/svg">
  <g transform="matrix(1.0, 0.0, 0.0, 1.0, 98.0, 31.0)">
    <path d="M71.85 -31.0 L71.85 -20.0 99.85 -20.0 99.85 -2.75 17.7 -2.75 17.7 1.5 12.85 1.5 12.85 -31.0 71.85 -31.0" fill="#ff0000"/>
    <path d="M12.85 -27.25 L12.85 -4.8 -98.0 -4.8 -98.0 -23.25 -41.65 -23.25 -41.65 -27.25 12.85 -27.25" fill="#ff0000"/>
    <path d="M-97.8 -5.0 L-42.8 -5.0 -42.8 17.65 -97.8 17.65 -97.8 -5.0" fill="#ff0000"/>
    <path d="M-27.0 14.55 L-27.0 28.05 -34.0 28.05 -34.0 31.55 -48.0 31.55 -48.0 -4.8 12.85 -4.8 12.85 14.55 -27.0 14.55" fill="#ff0000"/>
  </g>
</svg>
