<?xml version="1.0" encoding="UTF-8" standalone="no"?>
<svg xmlns:xlink="http://www.w3.org/1999/xlink" height="50.1px" width="233.1px" xmlns="http://www.w3.org/2000/svg">
  <g transform="matrix(1.0, 0.0, 0.0, 1.0, 120.0, 25.0)">
    <path d="M67.6 -6.6 L67.6 -1.4 -14.8 -1.4 -14.8 8.6 -26.95 11.4 -111.4 11.4 -111.4 11.8 -112.2 11.8 -112.2 12.6 -112.8 12.6 -112.8 16.2 -120.0 16.2 -120.0 -18.9 53.9 -18.9 53.9 -19.4 56.0 -19.4 56.0 -25.0 92.4 -25.0 92.4 -6.6 67.6 -6.6" fill="#ff0000"/>
    <path d="M-67.3 15.7 L-65.9 15.7 -65.9 11.4 -50.7 11.4 -50.7 25.1 -67.3 25.1 -67.3 15.7" fill="#ff0000"/>
    <path d="M113.1 -6.7 L92.35 -6.7 92.35 -13.7 113.1 -13.7 113.1 -6.7" fill="#ff0000"/>
  </g>
</svg>
