<?xml version="1.0" encoding="UTF-8" standalone="no"?>
<svg xmlns:xlink="http://www.w3.org/1999/xlink" height="75.9px" width="204.1px" xmlns="http://www.w3.org/2000/svg">
  <g transform="matrix(1.0, 0.0, 0.0, 1.0, 101.1, 34.25)">
    <path d="M77.95 -12.65 L103.0 -12.65 103.0 -0.65 80.95 -0.65 80.95 11.85 38.45 11.85 38.45 19.5 7.95 19.5 7.95 41.65 -1.35 41.65 -1.35 37.5 -0.95 37.5 -0.95 -34.25 77.95 -34.25 77.95 -12.65" fill="#ff0000"/>
    <path d="M-51.7 23.0 L-51.7 26.0 -101.1 26.0 -101.1 -23.0 -52.1 -23.0 -52.1 23.0 -51.7 23.0" fill="#ff0000"/>
    <path d="M-52.1 -23.0 L-12.1 -23.0 -12.1 35.5 -34.9 35.5 -34.9 31.9 -44.65 31.9 -44.65 23.0 -51.7 23.0 -52.1 23.0 -52.1 -23.0" fill="#ff0000"/>
    <path d="M-0.9 -34.25 L-0.9 37.5 -1.3 37.5 -6.4 37.05 -6.4 36.4 -6.9 36.4 -6.9 36.0 -12.9 36.0 -12.9 35.5 -12.1 35.5 -12.1 -23.0 -12.9 -23.0 -12.9 -34.25 -0.9 -34.25" fill="#ff0000"/>
  </g>
</svg>
