<?xml version="1.0" encoding="UTF-8" standalone="no"?>
<svg xmlns:xlink="http://www.w3.org/1999/xlink" height="63.5px" width="208.8px" xmlns="http://www.w3.org/2000/svg">
  <g transform="matrix(1.0, 0.0, 0.0, 1.0, 109.8, 16.95)">
    <path d="M96.0 -1.9 L96.0 5.35 87.95 5.35 87.95 16.1 5.95 16.1 5.95 27.05 -14.05 27.05 -14.05 46.55 -35.3 46.55 -35.3 46.1 -44.55 46.1 -44.55 14.55 -60.3 14.55 -60.3 -16.95 -40.05 -16.95 -40.05 -12.6 -14.9 -12.6 -14.9 -16.95 99.0 -16.95 99.0 -1.9 96.0 -1.9" fill="#ff0000"/>
    <path d="M-60.3 -16.7 L-60.3 15.3 -109.8 15.3 -109.8 -16.7 -60.3 -16.7" fill="#ff0000"/>
  </g>
</svg>
