<?xml version="1.0" encoding="UTF-8" standalone="no"?>
<svg xmlns:xlink="http://www.w3.org/1999/xlink" height="85.0px" width="255.45px" xmlns="http://www.w3.org/2000/svg">
  <g transform="matrix(1.0, 0.0, 0.0, 1.0, 127.7, 42.5)">
    <path d="M21.15 -3.1 L21.15 -0.5 18.25 -0.5 18.25 3.0 17.75 3.0 17.75 20.0 -32.75 20.0 -32.75 30.0 -36.25 30.0 -36.25 42.5 -64.5 42.5 -64.5 25.75 -63.0 25.75 -63.0 6.25 -64.5 6.25 -64.5 5.0 -66.5 5.0 -66.5 -1.75 -67.25 -1.75 -67.25 -2.5 -98.5 -2.5 -98.5 23.0 -127.7 23.0 -127.7 -27.0 -58.25 -27.0 -58.25 -35.5 -27.5 -35.5 -27.5 -28.5 -27.25 -28.5 -27.25 -27.25 71.25 -27.25 71.25 -28.5 72.75 -28.5 72.75 -42.5 90.0 -42.5 90.0 -22.5 127.75 -22.5 127.75 -10.75 99.0 -10.75 99.0 -3.1 21.15 -3.1" fill="#ff0000"/>
  </g>
</svg>
