<?xml version="1.0" encoding="UTF-8" standalone="no"?>
<svg xmlns:xlink="http://www.w3.org/1999/xlink" height="56.85px" width="35.75px" xmlns="http://www.w3.org/2000/svg">
  <g transform="matrix(1.0, 0.0, 0.0, 1.0, 0.0, 0.0)">
    <path d="M26.35 1.5 L26.2 0.95 26.7 0.0 35.75 0.0 35.75 56.85 0.0 56.85 0.0 14.7 0.9 15.3 Q0.65 16.05 0.65 17.0 L0.95 18.75 Q1.65 20.5 3.7 20.5 L10.25 18.3 13.25 17.5 21.8 16.75 Q28.0 15.5 29.85 14.65 32.3 13.55 32.3 11.45 32.3 7.75 28.05 8.1 L28.9 6.9 Q29.8 5.7 29.8 4.9 29.8 3.55 29.2 2.85 28.45 2.0 26.35 1.5" fill="#ff0000"/>
  </g>
</svg>
