<?xml version="1.0" encoding="UTF-8" standalone="no"?>
<svg xmlns:xlink="http://www.w3.org/1999/xlink" height="135.25px" width="382.75px" xmlns="http://www.w3.org/2000/svg">
  <g transform="matrix(1.0, 0.0, 0.0, 1.0, 0.0, 0.0)">
    <path d="M366.75 47.75 L366.75 45.25 260.0 45.25 260.0 45.75 219.2 45.75 219.2 63.75 221.7 63.75 221.7 81.35 168.8 81.35 168.8 132.65 221.7 132.65 221.7 135.25 162.55 135.25 162.55 117.4 95.7 117.4 95.7 87.25 81.4 87.25 81.4 85.5 107.8 85.5 107.8 52.95 81.4 52.95 81.4 52.2 45.2 52.2 45.2 87.25 0.0 87.25 0.0 17.5 116.8 17.5 116.8 13.2 133.75 13.2 133.75 12.7 135.65 12.7 135.65 9.9 144.0 9.9 144.0 0.0 163.7 0.0 163.7 10.5 348.25 10.5 348.25 9.4 359.3 9.4 359.3 0.0 374.25 0.0 374.25 11.0 382.75 11.0 382.75 54.55 373.0 54.55 373.0 47.75 366.75 47.75" fill="#ff0000"/>
  </g>
</svg>
