<?xml version="1.0" encoding="UTF-8" standalone="no"?>
<svg xmlns:xlink="http://www.w3.org/1999/xlink" height="242.1px" width="95.3px" xmlns="http://www.w3.org/2000/svg">
  <g transform="matrix(1.0, 0.0, 0.0, 1.0, 0.0, 0.0)">
    <path d="M91.25 27.7 L91.25 41.85 90.25 41.85 90.25 46.95 85.7 46.95 85.7 59.05 84.15 59.05 84.15 70.9 80.85 70.9 80.85 80.3 80.65 80.3 80.65 87.3 76.6 87.3 76.6 101.05 74.05 101.05 74.05 112.6 70.0 112.6 70.0 125.25 69.5 125.25 69.5 132.35 65.95 132.35 65.95 139.7 63.95 139.7 63.95 149.35 61.9 149.35 61.9 168.05 68.5 168.05 68.5 242.1 0.0 242.1 0.0 187.3 6.95 187.3 6.95 174.2 12.7 174.2 12.7 158.5 15.4 158.5 15.4 149.0 17.65 149.0 17.65 135.25 19.2 135.25 19.2 118.4 22.25 118.4 22.25 97.7 28.4 97.7 28.4 77.0 32.2 77.0 32.2 51.75 39.1 51.75 39.1 28.8 44.5 28.8 44.5 0.0 95.3 0.0 95.3 27.7 91.25 27.7" fill="#ff0000"/>
  </g>
</svg>
