<?xml version="1.0" encoding="UTF-8" standalone="no"?>
<svg xmlns:xlink="http://www.w3.org/1999/xlink" height="57.0px" width="208.6px" xmlns="http://www.w3.org/2000/svg">
  <g transform="matrix(1.0, 0.0, 0.0, 1.0, 103.25, 28.5)">
    <path d="M67.35 -22.0 L67.35 -28.0 105.35 -28.0 105.35 -7.5 89.85 -7.5 89.85 5.0 3.35 5.0 3.35 5.2 -1.8 5.2 -1.8 16.0 -4.7 16.0 -4.7 12.45 -20.25 12.45 -20.25 16.0 -23.15 16.0 -23.15 28.5 -45.65 28.5 -45.65 8.0 -66.65 8.0 -66.65 10.5 -103.25 10.5 -103.25 9.35 -102.15 9.35 -102.15 -4.4 -103.25 -4.4 -103.25 -28.5 -15.15 -28.5 -15.15 -28.0 -14.65 -28.0 -14.65 -22.0 67.35 -22.0" fill="#ff0000"/>
  </g>
</svg>
