<?xml version="1.0" encoding="UTF-8" standalone="no"?>
<svg xmlns:xlink="http://www.w3.org/1999/xlink" height="373.8px" width="1141.55px" xmlns="http://www.w3.org/2000/svg">
  <g transform="matrix(1.0, 0.0, 0.0, 1.0, -60.35, -360.75)">
    <path d="M875.7 489.85 L860.95 485.9 842.5 554.8 850.7 557.0 839.25 599.65 845.8 601.4 838.05 630.35 686.65 589.8 703.05 528.55 685.55 523.85 692.6 497.65 659.25 488.7 693.5 360.75 895.75 414.95 875.7 489.85" fill="#ff0000"/>
    <path d="M808.05 579.2 L808.05 589.15 827.95 589.15 827.95 691.55 739.95 691.55 739.95 579.2 808.05 579.2" fill="#ff0000"/>
    <path d="M848.05 650.1 L824.4 425.55 1178.3 388.35 1201.9 612.9 848.05 650.1" fill="#ff0000"/>
    <path d="M922.25 385.6 L1039.85 385.6 1039.85 449.45 922.25 449.45 922.25 385.6" fill="#ff0000"/>
    <path d="M85.2 734.55 L77.3 507.75 451.9 494.65 459.85 721.45 85.2 734.55" fill="#ff0000"/>
    <path d="M165.85 480.75 L165.85 531.95 128.35 531.95 128.35 573.45 60.35 573.45 60.35 517.55 76.35 517.55 76.35 480.75 165.85 480.75" fill="#ff0000"/>
    <path d="M294.0 552.75 L294.0 489.7 420.1 489.7 420.1 527.5 410.2 527.5 410.2 552.75 294.0 552.75" fill="#ff0000"/>
    <path d="M744.85 406.0 L744.85 701.05 494.0 701.05 494.0 426.3 519.9 426.3 519.9 406.0 744.85 406.0" fill="#ff0000"/>
    <path d="M431.0 725.35 L431.0 606.2 533.15 606.2 533.15 725.35 431.0 725.35" fill="#ff0000"/>
  </g>
</svg>
