<?xml version="1.0" encoding="UTF-8" standalone="no"?>
<svg xmlns:xlink="http://www.w3.org/1999/xlink" height="1440.0px" width="1280.0px" xmlns="http://www.w3.org/2000/svg">
  <g transform="matrix(1.0, 0.0, 0.0, 1.0, 0.0, 0.0)">
    <path d="M256.0 360.0 L256.05 720.0 0.0 720.0 0.0 360.0 256.0 360.0" fill="#ff0000"/>
    <path d="M0.0 360.0 L0.0 0.0 256.0 0.0 256.0 360.0 0.0 360.0" fill="#ff0000"/>
    <path d="M1216.05 1080.0 L1216.0 720.0 1280.0 720.0 1280.0 1080.0 1216.05 1080.0 M0.0 1080.0 L0.0 720.0 256.0 720.0 256.0 1080.0 0.0 1080.0" fill="#ff0000"/>
    <path d="M1280.0 1080.0 L1280.0 1440.0 1216.05 1440.0 1216.05 1080.0 1280.0 1080.0 M256.0 1080.0 L256.0 1440.0 0.0 1440.0 0.0 1080.0 256.0 1080.0" fill="#ff0000"/>
  </g>
</svg>
